#!OML:ASF E:\Steps\Project 1\Capture day 1\Session 2\Subject.ASF
:FULLY-SPECIFIED
:DEGREES
32
root 16.558 19.6445 20.3973 -152.695 -2.08366 178.647
lowerback -31.3188 -1.65493 -6.99346
upperback -1.59344 -0.490227 0.105541
thorax 14.5963 -0.996969 3.61902
lowerneck -6.07097 -3.37653 -0.587031
upperneck 7.74469 -4.92866 3.7597
head 3.72111 -2.34799 1.08845
rclavicle -1.21259e-014 -1.23246e-014
rhumerus -34.6154 -18.3646 -78.4505
rradius 30.6632
rwrist -0.737644
rhand -7.10872 -52.0915
rfingers 7.12502
rthumb 18.7663 -81.2063
lclavicle -1.21259e-014 -1.23246e-014
lhumerus -27.1972 2.30259 83.239
lradius 18.9922
lwrist -5.3029
lhand -22.3394 -12.2009
lfingers 7.12502
lthumb 4.08106 17.7398
rfemur -22.9705 4.72429 20.7097
rtibia 5.08775
rfoot -18.7089 -2.99516
rtoes -17.2301
lfemur -23.2018 -7.29687 -21.2103
ltibia 7.12242
lfoot -7.33944 -1.07392
ltoes -20.011
33
root 16.5578 19.6442 20.3988 -152.695 -2.07604 178.612
lowerback -31.3172 -1.70759 -7.04084
upperback -1.588 -0.544466 0.127281
thorax 14.6081 -1.02478 3.64619
lowerneck -6.04781 -3.81139 -0.489441
upperneck 8.3291 -5.54159 3.50313
head 3.92512 -2.65877 0.949803
rclavicle -7.8023e-015 -1.23246e-014
rhumerus -34.6362 -17.9519 -78.6868
rradius 30.9352
rwrist -1.05804
rhand -7.68582 -52.5304
rfingers 7.12502
rthumb 18.2111 -81.6979
lclavicle -7.8023e-015 -1.23246e-014
lhumerus -27.3599 2.87317 83.0711
lradius 18.9483
lwrist -5.76769
lhand -22.0884 -12.1141
lfingers 7.12502
lthumb 4.3234 17.8218
rfemur -23.1294 5.09199 20.5999
rtibia 5.44667
rfoot -18.8841 -3.37651
rtoes -16.9247
lfemur -23.2093 -7.17946 -21.3078
ltibia 7.16747
lfoot -7.33225 -1.14537
ltoes -21.2634
34
root 16.5569 19.6434 20.3987 -152.707 -2.03434 178.612
lowerback -31.3181 -1.71327 -7.03934
upperback -1.58771 -0.553663 0.13478
thorax 14.6101 -1.02912 3.6498
lowerneck -6.27895 -3.51703 -0.438963
upperneck 7.85765 -5.1166 3.56261
head 3.7942 -2.4398 0.982916
rclavicle 2.5345e-015 9.74045e-015
rhumerus -34.6479 -17.7846 -78.8152
rradius 31.0213
rwrist -1.77333
rhand -8.69351 -51.9967
rfingers 7.12502
rthumb 17.2415 -81.2518
lclavicle 2.5345e-015 9.74045e-015
lhumerus -27.4929 3.13446 82.9905
lradius 18.9045
lwrist -5.92789
lhand -21.8262 -11.7358
lfingers 7.12502
lthumb 4.5766 18.1947
rfemur -22.9762 4.32303 20.7537
rtibia 5.13358
rfoot -18.6276 -2.56971
rtoes -16.5482
lfemur -23.1801 -7.16576 -21.3353
ltibia 7.15142
lfoot -7.2889 -1.09521
ltoes -22.3253
35
root 16.5567 19.645 20.4 -152.737 -2.02339 178.616
lowerback -31.2279 -1.70346 -7.03259
upperback -1.61109 -0.550046 0.120701
thorax 14.5423 -1.0243 3.63362
lowerneck -6.45306 -3.76096 -0.131312
upperneck 8.3322 -5.47008 3.19465
head 3.98 -2.61649 0.780747
rclavicle 9.44227e-016 1.49089e-014
rhumerus -34.6805 -18.0609 -78.6886
rradius 31.0394
rwrist -1.35202
rhand -7.80951 -52.2279
rfingers 7.12502
rthumb 18.0921 -81.4064
lclavicle 9.44227e-016 1.49089e-014
lhumerus -27.5824 3.19087 82.9179
lradius 18.7312
lwrist -5.94425
lhand -21.7785 -11.7188
lfingers 7.12502
lthumb 4.62265 18.2107
rfemur -23.1013 5.2039 20.5685
rtibia 5.46523
rfoot -18.7876 -3.39078
rtoes -16.1438
lfemur -23.145 -7.31852 -21.2841
ltibia 7.12225
lfoot -7.30268 -0.984407
ltoes -21.836
36
root 16.5574 19.6453 20.401 -152.727 -2.03037 178.615
lowerback -31.1881 -1.70632 -7.04938
upperback -1.63067 -0.552915 0.114152
thorax 14.5018 -1.02554 3.63474
lowerneck -6.50509 -3.83236 -0.0530638
upperneck 8.51428 -5.57676 3.0947
head 4.05069 -2.66999 0.725206
rclavicle -2.98177e-016 -1.37161e-014
rhumerus -34.6353 -18.1285 -78.7123
rradius 30.8792
rwrist -1.66626
rhand -8.24013 -51.4053
rfingers 7.12502
rthumb 17.6778 -80.6217
lclavicle -2.98177e-016 -1.37161e-014
lhumerus -27.7074 3.33765 82.8168
lradius 18.6049
lwrist -6.18272
lhand -21.6595 -11.8153
lfingers 7.12502
lthumb 4.73757 18.1117
rfemur -23.1201 5.23463 20.5723
rtibia 5.45521
rfoot -18.8665 -3.39234
rtoes -16.1588
lfemur -23.1653 -7.3065 -21.2725
ltibia 7.12783
lfoot -7.31769 -1.03075
ltoes -20.6154
37
root 16.5565 19.6431 20.3997 -152.693 -2.04486 178.627
lowerback -31.2855 -1.71908 -7.0141
upperback -1.60586 -0.573872 0.122368
thorax 14.5765 -1.03549 3.61463
lowerneck -6.57155 -3.90394 -0.0109965
upperneck 8.68436 -5.67723 2.98604
head 4.12084 -2.72142 0.673027
rclavicle -7.95139e-015 1.37161e-014
rhumerus -34.5061 -18.2018 -78.7237
rradius 30.8363
rwrist -1.3433
rhand -7.51742 -51.9765
rfingers 7.12502
rthumb 18.3731 -81.1288
lclavicle -7.95139e-015 1.37161e-014
lhumerus -27.7725 3.56154 82.7375
lradius 18.4214
lwrist -6.49664
lhand -21.7137 -11.8346
lfingers 7.12502
lthumb 4.68522 18.0935
rfemur -23.1507 5.24038 20.5913
rtibia 5.47999
rfoot -18.9705 -3.39956
rtoes -16.2157
lfemur -23.1947 -7.12471 -21.3021
ltibia 7.12267
lfoot -7.23719 -1.19144
ltoes -19.7572
38
root 16.554 19.6419 20.3974 -152.706 -2.05262 178.636
lowerback -31.3429 -1.73477 -6.99567
upperback -1.58325 -0.59741 0.151687
thorax 14.6318 -1.04685 3.62649
lowerneck -6.52955 -3.94787 -0.0248275
upperneck 8.69422 -5.73125 2.94562
head 4.11582 -2.75083 0.659655
rclavicle 1.04362e-015 -2.54444e-014
rhumerus -34.407 -18.2131 -78.7302
rradius 30.6798
rwrist -1.32777
rhand -7.87842 -51.7298
rfingers 7.12502
rthumb 18.0258 -80.9144
lclavicle 1.04362e-015 -2.54444e-014
lhumerus -27.9094 3.77772 82.7128
lradius 18.3375
lwrist -6.73946
lhand -21.8076 -11.8442
lfingers 7.12502
lthumb 4.59456 18.086
rfemur -23.1257 5.35218 20.5688
rtibia 5.50795
rfoot -19.0127 -3.52699
rtoes -16.4696
lfemur -23.1571 -7.103 -21.3053
ltibia 7.0969
lfoot -7.20356 -1.22672
ltoes -18.9227
39
root 16.5528 19.643 20.3973 -152.734 -2.05575 178.63
lowerback -31.3031 -1.73852 -7.01275
upperback -1.58449 -0.598732 0.157525
thorax 14.6131 -1.04745 3.64237
lowerneck -6.55759 -3.83783 -0.0331583
upperneck 8.53442 -5.58295 3.05847
head 4.06632 -2.67284 0.708091
rclavicle 3.62782e-015 1.11319e-014
rhumerus -34.4076 -18.3093 -78.691
rradius 30.5699
rwrist -1.27505
rhand -8.1589 -51.2545
rfingers 7.12502
rthumb 17.7559 -80.4638
lclavicle 3.62782e-015 1.11319e-014
lhumerus -28.1238 3.80996 82.7022
lradius 18.4701
lwrist -6.78775
lhand -21.586 -11.6816
lfingers 7.12502
lthumb 4.80849 18.2439
rfemur -23.0895 5.36333 20.5675
rtibia 5.4771
rfoot -18.9252 -3.70084
rtoes -17.3745
lfemur -23.1246 -7.19708 -21.2924
ltibia 7.09354
lfoot -7.25255 -1.18059
ltoes -18.9127
40
root 16.5516 19.6436 20.3981 -152.754 -2.06859 178.642
lowerback -31.2532 -1.72528 -6.969
upperback -1.58831 -0.596486 0.134884
thorax 14.5863 -1.0416 3.59589
lowerneck -6.71238 -4.05361 0.166583
upperneck 8.89963 -5.8881 2.76731
head 4.21458 -2.82658 0.551512
rclavicle 5.36719e-015 6.55989e-015
rhumerus -34.4484 -18.3693 -78.7001
rradius 30.56
rwrist -1.2091
rhand -8.03353 -51.5073
rfingers 7.12502
rthumb 17.8766 -80.7057
lclavicle 5.36719e-015 6.55989e-015
lhumerus -28.2763 3.82392 82.6332
lradius 18.5322
lwrist -6.74967
lhand -21.3189 -11.5126
lfingers 7.12502
lthumb 5.06643 18.4068
rfemur -22.9869 5.13591 20.6409
rtibia 5.27096
rfoot -18.7393 -3.60382
rtoes -17.8544
lfemur -23.1138 -7.21807 -21.2783
ltibia 7.11085
lfoot -7.27008 -1.18993
ltoes -19.4763
